{
  "accessors": [
    {
      "bufferView": 2,
      "componentType": 5126,
      "count": 36358,
      "max": [
        499.4884338378906,
        76.16499328613281,
        444.41143798828125
      ],
      "min": [
        -500.5115661621094,
        -104.47911071777344,
        -466.95660400390625
      ],
      "type": "VEC3"
    },
    {
      "bufferView": 2,
      "byteOffset": 436296,
      "componentType": 5126,
      "count": 36358,
      "max": [
        0.9999405145645142,
        0.9985466599464417,
        0.9996086359024048
      ],
      "min": [
        -0.9961134791374207,
        -0.9998679757118225,
        -0.9997813701629639
      ],
      "type": "VEC3"
    },
    {
      "bufferView": 1,
      "componentType": 5126,
      "count": 36358,
      "max": [
        0.9989839792251587,
        0.99965500831604
      ],
      "min": [
        0.0003429999924264848,
        0.00609799986705184
      ],
      "type": "VEC2"
    },
    {
      "bufferView": 0,
      "componentType": 5125,
      "count": 123939,
      "type": "SCALAR"
    }
  ],
  "asset": {
    "extras": {
      "author": "Johan Stringer (https://sketchfab.com/johan.stringer)",
      "license": "CC-BY-4.0 (http://creativecommons.org/licenses/by/4.0/)",
      "source": "https://sketchfab.com/3d-models/flat-seashell-4277ee1a514c431cb777f1c93d3e3d2e",
      "title": "Flat seashell"
    },
    "generator": "Sketchfab-12.67.0",
    "version": "2.0"
  },
  "bufferViews": [
    {
      "buffer": 0,
      "byteLength": 495756,
      "name": "floatBufferViews",
      "target": 34963
    },
    {
      "buffer": 0,
      "byteLength": 290864,
      "byteOffset": 495756,
      "byteStride": 8,
      "name": "floatBufferViews",
      "target": 34962
    },
    {
      "buffer": 0,
      "byteLength": 872592,
      "byteOffset": 786620,
      "byteStride": 12,
      "name": "floatBufferViews",
      "target": 34962
    }
  ],
  "buffers": [
    {
      "byteLength": 1659212,
      "uri": "scene.bin"
    }
  ],
  "images": [
    {
      "uri": "textures/PlatteSchelp_baseColor.png"
    }
  ],
  "materials": [
    {
      "doubleSided": true,
      "name": "PlatteSchelp",
      "pbrMetallicRoughness": {
        "baseColorTexture": {
          "index": 0
        },
        "metallicFactor": 0.0
      }
    }
  ],
  "meshes": [
    {
      "name": "Object_0",
      "primitives": [
        {
          "attributes": {
            "NORMAL": 1,
            "POSITION": 0,
            "TEXCOORD_0": 2
          },
          "indices": 3,
          "material": 0,
          "mode": 4
        }
      ]
    }
  ],
  "nodes": [
    {
      "children": [
        1
      ],
      "matrix": [
        -2.220446049250313e-16,
        -1.0,
        -3.828568672208042e-16,
        0.0,
        1.6081226229577292e-16,
        3.828568672208042e-16,
        -1.0,
        0.0,
        1.0,
        -2.2204460492503136e-16,
        1.6081226229577287e-16,
        0.0,
        10.760360717773438,
        -11.785537719726563,
        -8.405582274054885e-16,
        1.0
      ],
      "name": "Sketchfab_model"
    },
    {
      "children": [
        2
      ],
      "name": "PlatteSchelp.obj.cleaner.materialmerger.gles"
    },
    {
      "mesh": 0,
      "name": "Object_2"
    }
  ],
  "samplers": [
    {
      "magFilter": 9729,
      "minFilter": 9987,
      "wrapS": 10497,
      "wrapT": 10497
    }
  ],
  "scene": 0,
  "scenes": [
    {
      "name": "Sketchfab_Scene",
      "nodes": [
        0
      ]
    }
  ],
  "textures": [
    {
      "sampler": 0,
      "source": 0
    }
  ]
}
